<mxfile host="app.diagrams.net" agent="Mozilla/5.0 (Windows NT 10.0; Win64; x64; rv:133.0) Gecko/20100101 Firefox/133.0" version="24.7.16">
  <diagram id="R2lEEEUBdFMjLlhIrx00" name="Page-1">
    <mxGraphModel dx="1195" dy="622" grid="1" gridSize="10" guides="1" tooltips="1" connect="1" arrows="1" fold="1" page="1" pageScale="1" pageWidth="850" pageHeight="1100" math="0" shadow="0" extFonts="Permanent Marker^https://fonts.googleapis.com/css?family=Permanent+Marker">
      <root>
        <mxCell id="0" />
        <mxCell id="1" parent="0" />
        <mxCell id="ZAn1Fa8JmTBQaMmz2LKh-1" value="Shoe" style="swimlane;childLayout=stackLayout;horizontal=1;startSize=50;horizontalStack=0;rounded=0;fontSize=14;fontStyle=0;strokeWidth=2;resizeParent=0;resizeLast=1;shadow=0;dashed=0;align=center;arcSize=4;whiteSpace=wrap;html=1;fontFamily=Times New Roman;" vertex="1" parent="1">
          <mxGeometry x="160" y="120" width="160" height="120" as="geometry" />
        </mxCell>
        <mxCell id="ZAn1Fa8JmTBQaMmz2LKh-2" value="&lt;div&gt;&lt;u&gt;&lt;span data-contrast=&quot;auto&quot;&gt;Purchase date&lt;/span&gt;&lt;/u&gt;&lt;/div&gt;&lt;div&gt;&lt;u&gt;&lt;span data-contrast=&quot;auto&quot;&gt;Purchase timestamp&lt;br&gt;&lt;/span&gt;&lt;/u&gt;&lt;/div&gt;&lt;div&gt;&lt;u&gt;&lt;span data-contrast=&quot;auto&quot;&gt;Purchase location&lt;/span&gt;&lt;/u&gt;&lt;/div&gt;&lt;div&gt;&lt;br&gt;&lt;/div&gt;" style="align=left;strokeColor=none;fillColor=none;spacingLeft=4;fontSize=12;verticalAlign=top;resizable=0;rotatable=0;part=1;html=1;fontFamily=Times New Roman;" vertex="1" parent="ZAn1Fa8JmTBQaMmz2LKh-1">
          <mxGeometry y="50" width="160" height="70" as="geometry" />
        </mxCell>
        <mxCell id="ZAn1Fa8JmTBQaMmz2LKh-4" value="Shoe Family" style="swimlane;childLayout=stackLayout;horizontal=1;startSize=50;horizontalStack=0;rounded=0;fontSize=14;fontStyle=0;strokeWidth=2;resizeParent=0;resizeLast=1;shadow=0;dashed=0;align=center;arcSize=4;whiteSpace=wrap;html=1;fontFamily=Times New Roman;" vertex="1" parent="1">
          <mxGeometry x="640" y="120" width="160" height="120" as="geometry" />
        </mxCell>
        <mxCell id="ZAn1Fa8JmTBQaMmz2LKh-5" value="&lt;u&gt;Name&lt;/u&gt;&lt;br&gt;&lt;span data-contrast=&quot;auto&quot;&gt;Date of introduction&lt;/span&gt;&lt;br&gt;&lt;span data-contrast=&quot;auto&quot;&gt;Category&lt;/span&gt;" style="align=left;strokeColor=none;fillColor=none;spacingLeft=4;fontSize=12;verticalAlign=top;resizable=0;rotatable=0;part=1;html=1;fontFamily=Times New Roman;" vertex="1" parent="ZAn1Fa8JmTBQaMmz2LKh-4">
          <mxGeometry y="50" width="160" height="70" as="geometry" />
        </mxCell>
        <mxCell id="ZAn1Fa8JmTBQaMmz2LKh-10" value="" style="shape=link;html=1;rounded=0;exitX=1;exitY=0.25;exitDx=0;exitDy=0;entryX=0;entryY=0.5;entryDx=0;entryDy=0;fontFamily=Times New Roman;" edge="1" parent="1" source="ZAn1Fa8JmTBQaMmz2LKh-2" target="ZAn1Fa8JmTBQaMmz2LKh-24">
          <mxGeometry relative="1" as="geometry">
            <mxPoint x="280" y="170" as="sourcePoint" />
            <mxPoint x="440" y="170" as="targetPoint" />
          </mxGeometry>
        </mxCell>
        <mxCell id="ZAn1Fa8JmTBQaMmz2LKh-11" value="" style="resizable=0;html=1;whiteSpace=wrap;align=right;verticalAlign=bottom;fontFamily=Times New Roman;" connectable="0" vertex="1" parent="ZAn1Fa8JmTBQaMmz2LKh-10">
          <mxGeometry x="1" relative="1" as="geometry" />
        </mxCell>
        <mxCell id="ZAn1Fa8JmTBQaMmz2LKh-12" value="Manufacturer" style="swimlane;childLayout=stackLayout;horizontal=1;startSize=50;horizontalStack=0;rounded=0;fontSize=14;fontStyle=0;strokeWidth=2;resizeParent=0;resizeLast=1;shadow=0;dashed=0;align=center;arcSize=4;whiteSpace=wrap;html=1;fontFamily=Times New Roman;" vertex="1" parent="1">
          <mxGeometry x="1070" y="120" width="160" height="120" as="geometry" />
        </mxCell>
        <mxCell id="ZAn1Fa8JmTBQaMmz2LKh-13" value="&lt;u&gt;Name&lt;/u&gt;&lt;br&gt;&lt;span data-contrast=&quot;auto&quot;&gt;Country of origin&lt;/span&gt;&lt;div&gt;&lt;br&gt;&lt;/div&gt;" style="align=left;strokeColor=none;fillColor=none;spacingLeft=4;fontSize=12;verticalAlign=top;resizable=0;rotatable=0;part=1;html=1;fontFamily=Times New Roman;" vertex="1" parent="ZAn1Fa8JmTBQaMmz2LKh-12">
          <mxGeometry y="50" width="160" height="70" as="geometry" />
        </mxCell>
        <mxCell id="ZAn1Fa8JmTBQaMmz2LKh-14" value="" style="shape=link;html=1;rounded=0;exitX=1.011;exitY=0.139;exitDx=0;exitDy=0;entryX=0;entryY=0.5;entryDx=0;entryDy=0;exitPerimeter=0;fontFamily=Times New Roman;" edge="1" parent="1" source="ZAn1Fa8JmTBQaMmz2LKh-5" target="ZAn1Fa8JmTBQaMmz2LKh-17">
          <mxGeometry relative="1" as="geometry">
            <mxPoint x="570" y="198" as="sourcePoint" />
            <mxPoint x="870" y="180" as="targetPoint" />
          </mxGeometry>
        </mxCell>
        <mxCell id="ZAn1Fa8JmTBQaMmz2LKh-15" value="" style="resizable=0;html=1;whiteSpace=wrap;align=right;verticalAlign=bottom;fontFamily=Times New Roman;" connectable="0" vertex="1" parent="ZAn1Fa8JmTBQaMmz2LKh-14">
          <mxGeometry x="1" relative="1" as="geometry" />
        </mxCell>
        <mxCell id="ZAn1Fa8JmTBQaMmz2LKh-17" value="contract" style="shape=rhombus;perimeter=rhombusPerimeter;whiteSpace=wrap;html=1;align=center;fontFamily=Times New Roman;" vertex="1" parent="1">
          <mxGeometry x="880" y="150" width="120" height="60" as="geometry" />
        </mxCell>
        <mxCell id="ZAn1Fa8JmTBQaMmz2LKh-20" value="" style="endArrow=none;html=1;rounded=0;exitX=1;exitY=0.5;exitDx=0;exitDy=0;entryX=0;entryY=0.143;entryDx=0;entryDy=0;entryPerimeter=0;fontFamily=Times New Roman;" edge="1" parent="1" source="ZAn1Fa8JmTBQaMmz2LKh-17" target="ZAn1Fa8JmTBQaMmz2LKh-13">
          <mxGeometry relative="1" as="geometry">
            <mxPoint x="1000" y="200" as="sourcePoint" />
            <mxPoint x="1160" y="200" as="targetPoint" />
          </mxGeometry>
        </mxCell>
        <mxCell id="ZAn1Fa8JmTBQaMmz2LKh-21" value="" style="shape=partialRectangle;fillColor=none;align=left;verticalAlign=middle;strokeColor=none;spacingLeft=34;rotatable=0;points=[[0,0.5],[1,0.5]];portConstraint=eastwest;dropTarget=0;fontFamily=Times New Roman;" vertex="1" parent="1">
          <mxGeometry x="910" y="120" width="90" height="30" as="geometry" />
        </mxCell>
        <mxCell id="ZAn1Fa8JmTBQaMmz2LKh-22" value="" style="shape=partialRectangle;top=0;left=0;bottom=0;fillColor=none;stokeWidth=1;dashed=1;align=left;verticalAlign=middle;spacingLeft=4;spacingRight=4;overflow=hidden;rotatable=0;points=[];portConstraint=eastwest;part=1;fontFamily=Times New Roman;" vertex="1" connectable="0" parent="ZAn1Fa8JmTBQaMmz2LKh-21">
          <mxGeometry width="30" height="30" as="geometry" />
        </mxCell>
        <mxCell id="ZAn1Fa8JmTBQaMmz2LKh-23" value="&lt;span data-contrast=&quot;auto&quot;&gt;start date of manufacturing&lt;/span&gt;" style="rounded=0;whiteSpace=wrap;html=1;fontFamily=Times New Roman;" vertex="1" parent="1">
          <mxGeometry x="880" y="60" width="120" height="60" as="geometry" />
        </mxCell>
        <mxCell id="ZAn1Fa8JmTBQaMmz2LKh-24" value="member" style="shape=rhombus;perimeter=rhombusPerimeter;whiteSpace=wrap;html=1;align=center;fontFamily=Times New Roman;" vertex="1" parent="1">
          <mxGeometry x="410" y="160" width="120" height="60" as="geometry" />
        </mxCell>
        <mxCell id="ZAn1Fa8JmTBQaMmz2LKh-25" value="" style="endArrow=classic;html=1;rounded=0;exitX=1;exitY=0.5;exitDx=0;exitDy=0;entryX=0;entryY=0.25;entryDx=0;entryDy=0;" edge="1" parent="1" source="ZAn1Fa8JmTBQaMmz2LKh-24" target="ZAn1Fa8JmTBQaMmz2LKh-5">
          <mxGeometry width="50" height="50" relative="1" as="geometry">
            <mxPoint x="540" y="220" as="sourcePoint" />
            <mxPoint x="590" y="170" as="targetPoint" />
          </mxGeometry>
        </mxCell>
      </root>
    </mxGraphModel>
  </diagram>
</mxfile>
